<svg width="127" height="31" viewBox="0 0 127 31" fill="none" xmlns="http://www.w3.org/2000/svg">
<path d="M17.8068 0.727272H22.7273L20.2273 15.8409C19.947 17.5379 19.2992 19.0227 18.2841 20.2955C17.2689 21.5682 15.9773 22.5606 14.4091 23.2727C12.8409 23.9773 11.0909 24.3295 9.15909 24.3295C7.22727 24.3295 5.59849 23.9773 4.27273 23.2727C2.94697 22.5606 1.98864 21.5682 1.39773 20.2955C0.806818 19.0227 0.651515 17.5379 0.931818 15.8409L3.43182 0.727272H8.35227L5.90909 15.4205C5.77273 16.3068 5.84091 17.0947 6.11364 17.7841C6.39394 18.4735 6.85606 19.0152 7.5 19.4091C8.14394 19.803 8.93939 20 9.88636 20C10.8409 20 11.7045 19.803 12.4773 19.4091C13.2576 19.0152 13.8977 18.4735 14.3977 17.7841C14.9053 17.0947 15.2273 16.3068 15.3636 15.4205L17.8068 0.727272ZM21.7642 30.5455L25.7869 6.54545H30.5597L30.071 9.47727H30.2869C30.5748 9.00758 30.9574 8.5303 31.4347 8.04545C31.9195 7.55303 32.5218 7.14394 33.2415 6.81818C33.9612 6.48485 34.8059 6.31818 35.7756 6.31818C37.0559 6.31818 38.1733 6.65152 39.1278 7.31818C40.0824 7.97727 40.7718 8.97348 41.196 10.3068C41.6278 11.6326 41.6771 13.2955 41.3438 15.2955C41.0256 17.2424 40.4384 18.8864 39.5824 20.2273C38.7339 21.5606 37.715 22.572 36.5256 23.2614C35.3438 23.9432 34.09 24.2841 32.7642 24.2841C31.8248 24.2841 31.0521 24.1288 30.446 23.8182C29.8475 23.5076 29.3816 23.1174 29.0483 22.6477C28.715 22.1705 28.4801 21.6894 28.3438 21.2045H28.1619L26.6165 30.5455H21.7642ZM29.071 15.2727C28.9044 16.3106 28.8968 17.2159 29.0483 17.9886C29.2074 18.7614 29.5256 19.3636 30.0028 19.7955C30.4801 20.2197 31.1089 20.4318 31.8892 20.4318C32.6771 20.4318 33.3778 20.2159 33.9915 19.7841C34.6051 19.3447 35.1165 18.7386 35.5256 17.9659C35.9347 17.1856 36.2263 16.2879 36.4006 15.2727C36.5597 14.2652 36.5634 13.3788 36.4119 12.6136C36.2604 11.8485 35.9498 11.25 35.4801 10.8182C35.0104 10.3864 34.3741 10.1705 33.571 10.1705C32.7907 10.1705 32.09 10.3788 31.4688 10.7955C30.8551 11.2121 30.3438 11.803 29.9347 12.5682C29.5256 13.3333 29.2377 14.2348 29.071 15.2727Z" fill="#6B77FF"/>
<path d="M57.2727 7.42045C57.1818 6.50379 56.7917 5.79167 56.1023 5.28409C55.4129 4.77651 54.4773 4.52273 53.2955 4.52273C52.4924 4.52273 51.8144 4.63636 51.2614 4.86364C50.7083 5.08333 50.2841 5.39015 49.9886 5.78409C49.7008 6.17803 49.5568 6.625 49.5568 7.125C49.5417 7.54167 49.6288 7.9053 49.8182 8.21591C50.0152 8.52652 50.2841 8.79545 50.625 9.02273C50.9659 9.24242 51.3598 9.43561 51.8068 9.60227C52.2538 9.76136 52.7311 9.89773 53.2386 10.0114L55.3295 10.5114C56.3447 10.7386 57.2765 11.0417 58.125 11.4205C58.9735 11.7992 59.7083 12.2652 60.3295 12.8182C60.9508 13.3712 61.4318 14.0227 61.7727 14.7727C62.1212 15.5227 62.2992 16.3826 62.3068 17.3523C62.2992 18.7765 61.9356 20.0114 61.2159 21.0568C60.5038 22.0947 59.4735 22.9015 58.125 23.4773C56.7841 24.0455 55.1667 24.3295 53.2727 24.3295C51.3939 24.3295 49.7576 24.0417 48.3636 23.4659C46.9773 22.8902 45.8939 22.0379 45.1136 20.9091C44.3409 19.7727 43.9356 18.3674 43.8977 16.6932H48.6591C48.7121 17.4735 48.9356 18.125 49.3295 18.6477C49.7311 19.1629 50.2652 19.553 50.9318 19.8182C51.6061 20.0758 52.3674 20.2045 53.2159 20.2045C54.0492 20.2045 54.7727 20.0833 55.3864 19.8409C56.0076 19.5985 56.4886 19.2614 56.8295 18.8295C57.1705 18.3977 57.3409 17.9015 57.3409 17.3409C57.3409 16.8182 57.1856 16.3788 56.875 16.0227C56.572 15.6667 56.125 15.3636 55.5341 15.1136C54.9508 14.8636 54.2348 14.6364 53.3864 14.4318L50.8523 13.7955C48.8902 13.3182 47.3409 12.572 46.2045 11.5568C45.0682 10.5417 44.5038 9.17424 44.5114 7.45454C44.5038 6.04545 44.8788 4.81439 45.6364 3.76136C46.4015 2.70833 47.4508 1.88636 48.7841 1.29545C50.1174 0.704545 51.6326 0.40909 53.3295 0.40909C55.0568 0.40909 56.5644 0.704545 57.8523 1.29545C59.1477 1.88636 60.1553 2.70833 60.875 3.76136C61.5947 4.81439 61.9659 6.03409 61.9886 7.42045H57.2727ZM70.5028 24.3295C69.3892 24.3295 68.3968 24.1364 67.5256 23.75C66.6544 23.3561 65.965 22.7765 65.4574 22.0114C64.9574 21.2386 64.7074 20.2765 64.7074 19.125C64.7074 18.1553 64.8854 17.3409 65.2415 16.6818C65.5975 16.0227 66.0824 15.4924 66.696 15.0909C67.3097 14.6894 68.0066 14.3864 68.7869 14.1818C69.5748 13.9773 70.4006 13.8333 71.2642 13.75C72.2794 13.6439 73.0975 13.5455 73.7188 13.4545C74.34 13.3561 74.7907 13.2121 75.071 13.0227C75.3513 12.8333 75.4915 12.553 75.4915 12.1818V12.1136C75.4915 11.3939 75.2642 10.8371 74.8097 10.4432C74.3627 10.0492 73.7263 9.85227 72.9006 9.85227C72.0294 9.85227 71.3362 10.0455 70.821 10.4318C70.3059 10.8106 69.965 11.2879 69.7983 11.8636L65.321 11.5C65.5483 10.4394 65.9953 9.52273 66.6619 8.75C67.3286 7.9697 68.1884 7.37121 69.2415 6.95454C70.3021 6.5303 71.5294 6.31818 72.9233 6.31818C73.893 6.31818 74.821 6.43182 75.7074 6.65909C76.6013 6.88636 77.393 7.23864 78.0824 7.71591C78.7794 8.19318 79.3286 8.80682 79.7301 9.55682C80.1316 10.2992 80.3324 11.1894 80.3324 12.2273V24H75.7415V21.5795H75.6051C75.3248 22.125 74.9498 22.6061 74.4801 23.0227C74.0104 23.4318 73.446 23.7538 72.7869 23.9886C72.1278 24.2159 71.3665 24.3295 70.5028 24.3295ZM71.8892 20.9886C72.6013 20.9886 73.2301 20.8485 73.7756 20.5682C74.321 20.2803 74.7491 19.8939 75.0597 19.4091C75.3703 18.9242 75.5256 18.375 75.5256 17.7614V15.9091C75.3741 16.0076 75.1657 16.0985 74.9006 16.1818C74.643 16.2576 74.3513 16.3295 74.0256 16.3977C73.6998 16.4583 73.3741 16.5152 73.0483 16.5682C72.7225 16.6136 72.4271 16.6553 72.1619 16.6932C71.5938 16.7765 71.0975 16.9091 70.6733 17.0909C70.2491 17.2727 69.9195 17.5189 69.6847 17.8295C69.4498 18.1326 69.3324 18.5114 69.3324 18.9659C69.3324 19.625 69.571 20.1288 70.0483 20.4773C70.5331 20.8182 71.1468 20.9886 71.8892 20.9886ZM88.929 0.727272V24H84.0881V0.727272H88.929ZM100.761 24.3409C98.9659 24.3409 97.4205 23.9773 96.125 23.25C94.8371 22.5152 93.8447 21.4773 93.1477 20.1364C92.4508 18.7879 92.1023 17.1932 92.1023 15.3523C92.1023 13.5568 92.4508 11.9811 93.1477 10.625C93.8447 9.26894 94.8258 8.21212 96.0909 7.45454C97.3636 6.69697 98.8561 6.31818 100.568 6.31818C101.72 6.31818 102.792 6.50379 103.784 6.875C104.784 7.23864 105.655 7.78788 106.398 8.52273C107.148 9.25758 107.731 10.1818 108.148 11.2955C108.564 12.4015 108.773 13.697 108.773 15.1818V16.5114H94.0341V13.5114H104.216C104.216 12.8144 104.064 12.197 103.761 11.6591C103.458 11.1212 103.038 10.7008 102.5 10.3977C101.97 10.0871 101.352 9.93182 100.648 9.93182C99.9129 9.93182 99.2614 10.1023 98.6932 10.4432C98.1326 10.7765 97.6932 11.2273 97.375 11.7955C97.0568 12.3561 96.8939 12.9811 96.8864 13.6705V16.5227C96.8864 17.3864 97.0455 18.1326 97.3636 18.7614C97.6894 19.3902 98.1477 19.875 98.7386 20.2159C99.3295 20.5568 100.03 20.7273 100.841 20.7273C101.379 20.7273 101.871 20.6515 102.318 20.5C102.765 20.3485 103.148 20.1212 103.466 19.8182C103.784 19.5152 104.027 19.1439 104.193 18.7045L108.67 19C108.443 20.0758 107.977 21.0152 107.273 21.8182C106.576 22.6136 105.674 23.2348 104.568 23.6818C103.47 24.1212 102.201 24.3409 100.761 24.3409ZM126.455 11.5227L122.023 11.7955C121.947 11.4167 121.784 11.0758 121.534 10.7727C121.284 10.4621 120.955 10.2159 120.545 10.0341C120.144 9.8447 119.663 9.75 119.102 9.75C118.352 9.75 117.72 9.90909 117.205 10.2273C116.689 10.5379 116.432 10.9545 116.432 11.4773C116.432 11.8939 116.598 12.2462 116.932 12.5341C117.265 12.822 117.837 13.053 118.648 13.2273L121.807 13.8636C123.504 14.2121 124.769 14.7727 125.602 15.5455C126.436 16.3182 126.852 17.3333 126.852 18.5909C126.852 19.7348 126.515 20.7386 125.841 21.6023C125.174 22.4659 124.258 23.1402 123.091 23.625C121.932 24.1023 120.595 24.3409 119.08 24.3409C116.769 24.3409 114.928 23.8598 113.557 22.8977C112.193 21.928 111.394 20.6098 111.159 18.9432L115.92 18.6932C116.064 19.3977 116.413 19.9356 116.966 20.3068C117.519 20.6705 118.227 20.8523 119.091 20.8523C119.939 20.8523 120.621 20.6894 121.136 20.3636C121.659 20.0303 121.924 19.6023 121.932 19.0795C121.924 18.6402 121.739 18.2803 121.375 18C121.011 17.7121 120.451 17.4924 119.693 17.3409L116.67 16.7386C114.966 16.3977 113.697 15.8068 112.864 14.9659C112.038 14.125 111.625 13.053 111.625 11.75C111.625 10.6288 111.928 9.66288 112.534 8.85227C113.148 8.04167 114.008 7.41667 115.114 6.97727C116.227 6.53788 117.53 6.31818 119.023 6.31818C121.227 6.31818 122.962 6.78409 124.227 7.71591C125.5 8.64773 126.242 9.91667 126.455 11.5227Z" fill="white"/>
</svg>
