<svg width="1221" height="1221" viewBox="0 0 1221 1221" fill="none" xmlns="http://www.w3.org/2000/svg">
<path fill-rule="evenodd" clip-rule="evenodd" d="M1220 610.5C1220 947.118 947.118 1220 610.5 1220C273.882 1220 1 947.118 1 610.5C1 273.882 273.882 1 610.5 1C947.118 1 1220 273.882 1220 610.5ZM1221 610.5C1221 947.67 947.67 1221 610.5 1221C273.33 1221 0 947.67 0 610.5C0 273.33 273.33 0 610.5 0C947.67 0 1221 273.33 1221 610.5ZM610.5 1144.43C905.383 1144.43 1144.43 905.383 1144.43 610.5C1144.43 315.617 905.383 76.5668 610.5 76.5668C315.617 76.5668 76.5667 315.617 76.5667 610.5C76.5667 905.383 315.617 1144.43 610.5 1144.43ZM610.5 1145.43C905.935 1145.43 1145.43 905.935 1145.43 610.5C1145.43 315.065 905.935 75.5668 610.5 75.5668C315.064 75.5668 75.5667 315.065 75.5667 610.5C75.5667 905.935 315.064 1145.43 610.5 1145.43ZM1074.83 610.5C1074.83 866.944 866.944 1074.83 610.5 1074.83C354.056 1074.83 146.168 866.944 146.168 610.5C146.168 354.056 354.056 146.168 610.5 146.168C866.944 146.168 1074.83 354.056 1074.83 610.5ZM1075.83 610.5C1075.83 867.496 867.496 1075.83 610.5 1075.83C353.504 1075.83 145.168 867.496 145.168 610.5C145.168 353.504 353.504 145.168 610.5 145.168C867.496 145.168 1075.83 353.504 1075.83 610.5ZM610.5 1005.23C828.504 1005.23 1005.23 828.504 1005.23 610.5C1005.23 392.496 828.504 215.769 610.5 215.769C392.496 215.769 215.769 392.496 215.769 610.5C215.769 828.504 392.496 1005.23 610.5 1005.23ZM610.5 1006.23C829.056 1006.23 1006.23 829.056 1006.23 610.5C1006.23 391.944 829.056 214.769 610.5 214.769C391.944 214.769 214.769 391.944 214.769 610.5C214.769 829.056 391.944 1006.23 610.5 1006.23ZM939.608 610.5C939.608 792.261 792.261 939.607 610.5 939.607C428.739 939.607 281.393 792.261 281.393 610.5C281.393 428.739 428.739 281.393 610.5 281.393C792.261 281.393 939.608 428.739 939.608 610.5ZM940.608 610.5C940.608 792.813 792.813 940.607 610.5 940.607C428.187 940.607 280.393 792.813 280.393 610.5C280.393 428.187 428.187 280.393 610.5 280.393C792.813 280.393 940.608 428.187 940.608 610.5ZM610.5 871.995C754.92 871.995 871.995 754.92 871.995 610.5C871.995 466.08 754.92 349.005 610.5 349.005C466.08 349.005 349.005 466.08 349.005 610.5C349.005 754.92 466.08 871.995 610.5 871.995ZM610.5 872.995C755.472 872.995 872.995 755.472 872.995 610.5C872.995 465.528 755.472 348.005 610.5 348.005C465.528 348.005 348.005 465.528 348.005 610.5C348.005 755.472 465.528 872.995 610.5 872.995ZM816.314 610.5C816.314 724.168 724.168 816.314 610.5 816.314C496.832 816.314 404.686 724.168 404.686 610.5C404.686 496.832 496.832 404.686 610.5 404.686C724.168 404.686 816.314 496.832 816.314 610.5ZM817.314 610.5C817.314 724.72 724.72 817.314 610.5 817.314C496.28 817.314 403.686 724.72 403.686 610.5C403.686 496.28 496.28 403.686 610.5 403.686C724.72 403.686 817.314 496.28 817.314 610.5ZM610.5 758.645C692.318 758.645 758.645 692.318 758.645 610.5C758.645 528.682 692.318 462.355 610.5 462.355C528.682 462.355 462.355 528.682 462.355 610.5C462.355 692.318 528.682 758.645 610.5 758.645ZM610.5 759.645C692.87 759.645 759.645 692.87 759.645 610.5C759.645 528.129 692.87 461.355 610.5 461.355C528.13 461.355 461.355 528.129 461.355 610.5C461.355 692.87 528.13 759.645 610.5 759.645ZM610.5 708.93C664.861 708.93 708.93 664.861 708.93 610.5C708.93 556.139 664.861 512.07 610.5 512.07C556.139 512.07 512.07 556.139 512.07 610.5C512.07 664.861 556.139 708.93 610.5 708.93ZM610.5 709.93C665.414 709.93 709.93 665.414 709.93 610.5C709.93 555.586 665.414 511.07 610.5 511.07C555.586 511.07 511.07 555.586 511.07 610.5C511.07 665.414 555.586 709.93 610.5 709.93Z" fill="url(#paint0_linear_610_630)"/>
<defs>
<linearGradient id="paint0_linear_610_630" x1="560" y1="757.5" x2="1098" y2="53.9999" gradientUnits="userSpaceOnUse">
<stop stop-color="#4D4B75"/>
<stop offset="1" stop-color="#4D4B75" stop-opacity="0"/>
</linearGradient>
</defs>
</svg>
