<svg width="1280" height="955" viewBox="0 0 1280 955" fill="none" xmlns="http://www.w3.org/2000/svg">
<mask id="mask0_610_445" style="mask-type:alpha" maskUnits="userSpaceOnUse" x="0" y="0" width="1280" height="955">
<path d="M0 0H1280V747L0 954.5V0Z" fill="#141330"/>
</mask>
<g mask="url(#mask0_610_445)">
<path d="M0 0H1280V747L0 954.5V0Z" fill="#141330"/>
<path fill-rule="evenodd" clip-rule="evenodd" d="M646 904.5C646 1241.12 373.118 1514 36.5 1514C-300.118 1514 -573 1241.12 -573 904.5C-573 567.882 -300.118 295 36.5 295C373.118 295 646 567.882 646 904.5ZM647 904.5C647 1241.67 373.67 1515 36.5 1515C-300.67 1515 -574 1241.67 -574 904.5C-574 567.33 -300.67 294 36.5 294C373.67 294 647 567.33 647 904.5ZM36.4999 1438.43C331.383 1438.43 570.433 1199.38 570.433 904.5C570.433 609.617 331.383 370.567 36.4999 370.567C-258.383 370.567 -497.433 609.617 -497.433 904.5C-497.433 1199.38 -258.383 1438.43 36.4999 1438.43ZM36.4999 1439.43C331.935 1439.43 571.433 1199.94 571.433 904.5C571.433 609.065 331.935 369.567 36.4999 369.567C-258.936 369.567 -498.433 609.065 -498.433 904.5C-498.433 1199.94 -258.936 1439.43 36.4999 1439.43ZM500.832 904.5C500.832 1160.94 292.944 1368.83 36.5001 1368.83C-219.944 1368.83 -427.832 1160.94 -427.832 904.5C-427.832 648.056 -219.944 440.168 36.5001 440.168C292.944 440.168 500.832 648.056 500.832 904.5ZM501.832 904.5C501.832 1161.5 293.496 1369.83 36.5001 1369.83C-220.496 1369.83 -428.832 1161.5 -428.832 904.5C-428.832 647.504 -220.496 439.168 36.5001 439.168C293.496 439.168 501.832 647.504 501.832 904.5ZM36.5001 1299.23C254.504 1299.23 431.231 1122.5 431.231 904.5C431.231 686.496 254.504 509.769 36.5001 509.769C-181.504 509.769 -358.231 686.496 -358.231 904.5C-358.231 1122.5 -181.504 1299.23 36.5001 1299.23ZM36.5001 1300.23C255.056 1300.23 432.231 1123.06 432.231 904.5C432.231 685.944 255.056 508.769 36.5001 508.769C-182.056 508.769 -359.231 685.944 -359.231 904.5C-359.231 1123.06 -182.056 1300.23 36.5001 1300.23ZM365.608 904.5C365.608 1086.26 218.261 1233.61 36.5 1233.61C-145.261 1233.61 -292.607 1086.26 -292.607 904.5C-292.607 722.739 -145.261 575.393 36.5 575.393C218.261 575.393 365.608 722.739 365.608 904.5ZM366.608 904.5C366.608 1086.81 218.813 1234.61 36.5 1234.61C-145.813 1234.61 -293.607 1086.81 -293.607 904.5C-293.607 722.187 -145.813 574.393 36.5 574.393C218.813 574.393 366.608 722.187 366.608 904.5ZM36.5 1166C180.92 1166 297.995 1048.92 297.995 904.5C297.995 760.08 180.92 643.005 36.5 643.005C-107.92 643.005 -224.995 760.08 -224.995 904.5C-224.995 1048.92 -107.92 1166 36.5 1166ZM36.5 1167C181.472 1167 298.995 1049.47 298.995 904.5C298.995 759.528 181.472 642.005 36.5 642.005C-108.472 642.005 -225.995 759.528 -225.995 904.5C-225.995 1049.47 -108.472 1167 36.5 1167ZM242.314 904.5C242.314 1018.17 150.168 1110.31 36.4999 1110.31C-77.1682 1110.31 -169.314 1018.17 -169.314 904.5C-169.314 790.832 -77.1682 698.686 36.4999 698.686C150.168 698.686 242.314 790.832 242.314 904.5ZM243.314 904.5C243.314 1018.72 150.72 1111.31 36.4999 1111.31C-77.7205 1111.31 -170.314 1018.72 -170.314 904.5C-170.314 790.28 -77.7205 697.686 36.4999 697.686C150.72 697.686 243.314 790.28 243.314 904.5ZM36.5 1052.64C118.318 1052.64 184.645 986.318 184.645 904.5C184.645 822.682 118.318 756.355 36.5 756.355C-45.3182 756.355 -111.645 822.682 -111.645 904.5C-111.645 986.318 -45.3182 1052.64 36.5 1052.64ZM36.5 1053.64C118.87 1053.64 185.645 986.87 185.645 904.5C185.645 822.129 118.87 755.355 36.5 755.355C-45.8705 755.355 -112.645 822.129 -112.645 904.5C-112.645 986.87 -45.8705 1053.64 36.5 1053.64ZM36.5 1002.93C90.8613 1002.93 134.93 958.861 134.93 904.5C134.93 850.139 90.8613 806.07 36.5 806.07C-17.8614 806.07 -61.93 850.139 -61.93 904.5C-61.93 958.861 -17.8614 1002.93 36.5 1002.93ZM36.5 1003.93C91.4136 1003.93 135.93 959.414 135.93 904.5C135.93 849.586 91.4136 805.07 36.5 805.07C-18.4137 805.07 -62.93 849.586 -62.93 904.5C-62.93 959.414 -18.4137 1003.93 36.5 1003.93Z" fill="url(#paint0_linear_610_445)"/>
</g>
<defs>
<linearGradient id="paint0_linear_610_445" x1="-14" y1="1051.5" x2="524" y2="348" gradientUnits="userSpaceOnUse">
<stop stop-color="#4D4B75"/>
<stop offset="1" stop-color="#4D4B75" stop-opacity="0"/>
</linearGradient>
</defs>
</svg>
