<svg width="140" height="40" viewBox="0 0 140 40" fill="none" xmlns="http://www.w3.org/2000/svg">
<path d="M24.9708 1.05386L21.0568 0L17.7585 12.3696L14.7807 1.20224L10.8667 2.2561L14.084 14.3216L6.07048 6.26898L3.20526 9.14817L11.9951 17.981L1.04874 15.0336L0 18.9666L11.9603 22.187C11.8234 21.5935 11.7509 20.9751 11.7509 20.3397C11.7509 15.8421 15.3792 12.1961 19.855 12.1961C24.3308 12.1961 27.9591 15.8421 27.9591 20.3397C27.9591 20.971 27.8875 21.5856 27.7523 22.1756L38.622 25.1023L39.6707 21.1693L27.6628 17.9361L38.61 14.9885L37.5612 11.0555L25.5538 14.2885L33.5673 6.23592L30.7021 3.35673L22.0342 12.067L24.9708 1.05386Z" fill="#F97316"/>
<path d="M27.7417 22.2212C27.4061 23.6468 26.6976 24.9275 25.7256 25.9536L33.6002 33.8667L36.4654 30.9875L27.7417 22.2212Z" fill="#F97316"/>
<path d="M25.6461 26.0366C24.6623 27.0463 23.4191 27.7998 22.0249 28.1881L24.8903 38.9341L28.8042 37.8802L25.6461 26.0366Z" fill="#F97316"/>
<path d="M21.8783 28.2274C21.2315 28.3945 20.5535 28.4833 19.8548 28.4833C19.1062 28.4833 18.3814 28.3813 17.6932 28.1904L14.8252 38.9462L18.7391 40L21.8783 28.2274Z" fill="#F97316"/>
<path d="M17.5553 28.1506C16.1824 27.743 14.9612 26.9799 13.9975 25.9673L6.10352 33.8998L8.96874 36.779L17.5553 28.1506Z" fill="#F97316"/>
<path d="M13.9313 25.8971C12.9841 24.8781 12.2941 23.6145 11.9657 22.2109L1.06055 25.1472L2.10928 29.0802L13.9313 25.8971Z" fill="#F97316"/>
<path d="M63.4126 15.5653C63.3444 14.8778 63.0518 14.3437 62.5347 13.9631C62.0177 13.5824 61.316 13.392 60.4296 13.392C59.8273 13.392 59.3188 13.4773 58.904 13.6477C58.4893 13.8125 58.1711 14.0426 57.9495 14.3381C57.7336 14.6335 57.6256 14.9688 57.6256 15.3438C57.6143 15.6562 57.6796 15.929 57.8216 16.1619C57.9694 16.3949 58.1711 16.5966 58.4268 16.767C58.6824 16.9318 58.9779 17.0767 59.3131 17.2017C59.6483 17.321 60.0063 17.4233 60.387 17.5085L61.9552 17.8835C62.7165 18.054 63.4154 18.2812 64.0518 18.5653C64.6881 18.8494 65.2393 19.1989 65.7052 19.6136C66.1711 20.0284 66.5319 20.517 66.7876 21.0795C67.0489 21.642 67.1824 22.2869 67.1881 23.0142C67.1824 24.0824 66.9097 25.0085 66.3699 25.7926C65.8358 26.571 65.0631 27.1761 64.0518 27.608C63.0461 28.0341 61.833 28.2472 60.4126 28.2472C59.0035 28.2472 57.7762 28.0312 56.7307 27.5994C55.691 27.1676 54.8785 26.5284 54.2932 25.6818C53.7137 24.8295 53.4097 23.7756 53.3813 22.5199H56.9523C56.9921 23.1051 57.1597 23.5937 57.4552 23.9858C57.7563 24.3722 58.1569 24.6648 58.6569 24.8636C59.1626 25.0568 59.7336 25.1534 60.3699 25.1534C60.9949 25.1534 61.5376 25.0625 61.9978 24.8807C62.4637 24.6989 62.8245 24.446 63.0802 24.1222C63.3358 23.7983 63.4637 23.4261 63.4637 23.0057C63.4637 22.6136 63.3472 22.2841 63.1143 22.017C62.887 21.75 62.5518 21.5227 62.1086 21.3352C61.6711 21.1477 61.1341 20.9773 60.4978 20.8239L58.5972 20.3466C57.1256 19.9886 55.9637 19.429 55.1114 18.6676C54.2591 17.9062 53.8358 16.8807 53.8415 15.5909C53.8358 14.5341 54.1171 13.6108 54.6853 12.821C55.2591 12.0312 56.0461 11.4148 57.0461 10.9716C58.0461 10.5284 59.1824 10.3068 60.4552 10.3068C61.7506 10.3068 62.8813 10.5284 63.8472 10.9716C64.8188 11.4148 65.5745 12.0312 66.1143 12.821C66.654 13.6108 66.9324 14.5256 66.9495 15.5653H63.4126ZM73.2329 20.4318V28H69.6022V10.5455H73.1306V17.2188H73.284C73.5795 16.446 74.0567 15.8409 74.7158 15.4034C75.3749 14.9602 76.2016 14.7386 77.1959 14.7386C78.105 14.7386 78.8976 14.9375 79.5738 15.3352C80.2556 15.7273 80.784 16.2926 81.159 17.0312C81.5397 17.7642 81.7272 18.642 81.7215 19.6648V28H78.0908V20.3125C78.0965 19.5057 77.892 18.8778 77.4772 18.429C77.0681 17.9801 76.4942 17.7557 75.7556 17.7557C75.2613 17.7557 74.8238 17.8608 74.4431 18.071C74.0681 18.2812 73.7726 18.5881 73.5567 18.9915C73.3465 19.3892 73.2385 19.8693 73.2329 20.4318ZM88.3117 28.2472C87.4765 28.2472 86.7322 28.1023 86.0787 27.8125C85.4253 27.517 84.9083 27.0824 84.5276 26.5085C84.1526 25.929 83.9651 25.2074 83.9651 24.3438C83.9651 23.6165 84.0986 23.0057 84.3657 22.5114C84.6327 22.017 84.9964 21.6193 85.4566 21.3182C85.9168 21.017 86.4395 20.7898 87.0248 20.6364C87.6157 20.483 88.235 20.375 88.8827 20.3125C89.6441 20.233 90.2577 20.1591 90.7236 20.0909C91.1895 20.017 91.5276 19.9091 91.7378 19.767C91.9481 19.625 92.0532 19.4148 92.0532 19.1364V19.0852C92.0532 18.5455 91.8827 18.1278 91.5418 17.8324C91.2066 17.5369 90.7293 17.3892 90.11 17.3892C89.4566 17.3892 88.9367 17.5341 88.5503 17.8239C88.164 18.108 87.9083 18.4659 87.7833 18.8977L84.4253 18.625C84.5958 17.8295 84.931 17.142 85.431 16.5625C85.931 15.9773 86.5759 15.5284 87.3657 15.2159C88.1611 14.8977 89.0816 14.7386 90.127 14.7386C90.8543 14.7386 91.5503 14.8239 92.2151 14.9943C92.8856 15.1648 93.4793 15.429 93.9964 15.7869C94.5191 16.1449 94.931 16.6051 95.2322 17.1676C95.5333 17.7244 95.6839 18.392 95.6839 19.1705V28H92.2407V26.1847H92.1384C91.9282 26.5938 91.6469 26.9545 91.2947 27.267C90.9424 27.5739 90.5191 27.8153 90.0248 27.9915C89.5305 28.1619 88.9594 28.2472 88.3117 28.2472ZM89.3515 25.7415C89.8856 25.7415 90.3572 25.6364 90.7662 25.4261C91.1753 25.2102 91.4964 24.9205 91.7293 24.5568C91.9623 24.1932 92.0787 23.7812 92.0787 23.321V21.9318C91.9651 22.0057 91.8089 22.0739 91.61 22.1364C91.4168 22.1932 91.1981 22.2472 90.9537 22.2983C90.7094 22.3437 90.4651 22.3864 90.2208 22.4261C89.9765 22.4602 89.7549 22.4915 89.556 22.5199C89.1299 22.5824 88.7577 22.6818 88.4395 22.8182C88.1214 22.9545 87.8742 23.1392 87.6981 23.3722C87.5219 23.5994 87.4339 23.8835 87.4339 24.2244C87.4339 24.7188 87.6128 25.0966 87.9708 25.358C88.3344 25.6136 88.7947 25.7415 89.3515 25.7415ZM100.273 32.9091C99.8131 32.9091 99.3813 32.8722 98.9779 32.7983C98.5802 32.7301 98.2506 32.642 97.9893 32.5341L98.8074 29.8239C99.2336 29.9545 99.6171 30.0256 99.958 30.0369C100.305 30.0483 100.603 29.9688 100.853 29.7983C101.109 29.6278 101.316 29.3381 101.475 28.929L101.688 28.375L96.9921 14.9091H100.81L103.521 24.5227H103.657L106.393 14.9091H110.236L105.148 29.4148C104.904 30.1193 104.572 30.733 104.151 31.2557C103.736 31.7841 103.211 32.1903 102.574 32.4744C101.938 32.7642 101.171 32.9091 100.273 32.9091ZM115.725 20.4318V28H112.094V14.9091H115.555V17.2188H115.708C115.998 16.4574 116.484 15.8551 117.165 15.4119C117.847 14.9631 118.674 14.7386 119.646 14.7386C120.555 14.7386 121.347 14.9375 122.023 15.3352C122.699 15.733 123.225 16.3011 123.6 17.0398C123.975 17.7727 124.163 18.6477 124.163 19.6648V28H120.532V20.3125C120.538 19.5114 120.333 18.8864 119.918 18.4375C119.503 17.983 118.932 17.7557 118.205 17.7557C117.717 17.7557 117.285 17.8608 116.91 18.071C116.54 18.2812 116.251 18.5881 116.04 18.9915C115.836 19.3892 115.731 19.8693 115.725 20.4318ZM130.757 28.2472C129.922 28.2472 129.177 28.1023 128.524 27.8125C127.871 27.517 127.354 27.0824 126.973 26.5085C126.598 25.929 126.41 25.2074 126.41 24.3438C126.41 23.6165 126.544 23.0057 126.811 22.5114C127.078 22.017 127.442 21.6193 127.902 21.3182C128.362 21.017 128.885 20.7898 129.47 20.6364C130.061 20.483 130.68 20.375 131.328 20.3125C132.089 20.233 132.703 20.1591 133.169 20.0909C133.635 20.017 133.973 19.9091 134.183 19.767C134.393 19.625 134.498 19.4148 134.498 19.1364V19.0852C134.498 18.5455 134.328 18.1278 133.987 17.8324C133.652 17.5369 133.175 17.3892 132.555 17.3892C131.902 17.3892 131.382 17.5341 130.996 17.8239C130.609 18.108 130.354 18.4659 130.229 18.8977L126.871 18.625C127.041 17.8295 127.376 17.142 127.876 16.5625C128.376 15.9773 129.021 15.5284 129.811 15.2159C130.606 14.8977 131.527 14.7386 132.572 14.7386C133.3 14.7386 133.996 14.8239 134.66 14.9943C135.331 15.1648 135.925 15.429 136.442 15.7869C136.964 16.1449 137.376 16.6051 137.677 17.1676C137.979 17.7244 138.129 18.392 138.129 19.1705V28H134.686V26.1847H134.584C134.373 26.5938 134.092 26.9545 133.74 27.267C133.388 27.5739 132.964 27.8153 132.47 27.9915C131.976 28.1619 131.405 28.2472 130.757 28.2472ZM131.797 25.7415C132.331 25.7415 132.802 25.6364 133.212 25.4261C133.621 25.2102 133.942 24.9205 134.175 24.5568C134.408 24.1932 134.524 23.7812 134.524 23.321V21.9318C134.41 22.0057 134.254 22.0739 134.055 22.1364C133.862 22.1932 133.643 22.2472 133.399 22.2983C133.155 22.3437 132.91 22.3864 132.666 22.4261C132.422 22.4602 132.2 22.4915 132.001 22.5199C131.575 22.5824 131.203 22.6818 130.885 22.8182C130.567 22.9545 130.32 23.1392 130.143 23.3722C129.967 23.5994 129.879 23.8835 129.879 24.2244C129.879 24.7188 130.058 25.0966 130.416 25.358C130.78 25.6136 131.24 25.7415 131.797 25.7415Z" fill="#141330"/>
</svg>
