<svg width="60" height="60" viewBox="0 0 60 60" fill="none" xmlns="http://www.w3.org/2000/svg">
<mask id="mask0_646_634" style="mask-type:alpha" maskUnits="userSpaceOnUse" x="0" y="0" width="60" height="60">
<rect width="60" height="60" rx="16" fill="#FAFAFA"/>
</mask>
<g mask="url(#mask0_646_634)">
<rect width="60" height="60" rx="16" fill="#FAFAFA"/>
<path d="M25.205 34.0695L-3.74392 57.4841C-4.53837 58.1266 -5 59.0937 -5 60.1155C-5 61.9847 -3.48472 63.5 -1.61552 63.5H57C60.3137 63.5 63 60.8137 63 57.5V35.1886C63 30.3027 57.4725 27.4654 53.5025 30.3134L43.7372 37.319C41.5324 38.9007 38.5404 38.8058 36.4403 37.0875L32.7776 34.0908C30.5773 32.2905 27.4155 32.2816 25.205 34.0695Z" fill="#DCDDE0"/>
<circle cx="18" cy="18" r="8" fill="#DCDDE0"/>
</g>
</svg>
