<svg width="647" height="661" viewBox="0 0 647 661" fill="none" xmlns="http://www.w3.org/2000/svg">
<path fill-rule="evenodd" clip-rule="evenodd" d="M646 610.5C646 947.118 373.118 1220 36.5 1220C-300.118 1220 -573 947.118 -573 610.5C-573 273.882 -300.118 1 36.5 1C373.118 1 646 273.882 646 610.5ZM647 610.5C647 947.67 373.67 1221 36.5 1221C-300.67 1221 -574 947.67 -574 610.5C-574 273.33 -300.67 0 36.5 0C373.67 0 647 273.33 647 610.5ZM36.4999 1144.43C331.383 1144.43 570.433 905.383 570.433 610.5C570.433 315.617 331.383 76.5668 36.4999 76.5668C-258.383 76.5668 -497.433 315.617 -497.433 610.5C-497.433 905.383 -258.383 1144.43 36.4999 1144.43ZM36.4999 1145.43C331.935 1145.43 571.433 905.935 571.433 610.5C571.433 315.065 331.935 75.5668 36.4999 75.5668C-258.936 75.5668 -498.433 315.065 -498.433 610.5C-498.433 905.935 -258.936 1145.43 36.4999 1145.43ZM500.832 610.5C500.832 866.944 292.944 1074.83 36.5001 1074.83C-219.944 1074.83 -427.832 866.944 -427.832 610.5C-427.832 354.056 -219.944 146.168 36.5001 146.168C292.944 146.168 500.832 354.056 500.832 610.5ZM501.832 610.5C501.832 867.496 293.496 1075.83 36.5001 1075.83C-220.496 1075.83 -428.832 867.496 -428.832 610.5C-428.832 353.504 -220.496 145.168 36.5001 145.168C293.496 145.168 501.832 353.504 501.832 610.5ZM36.5001 1005.23C254.504 1005.23 431.231 828.504 431.231 610.5C431.231 392.496 254.504 215.769 36.5001 215.769C-181.504 215.769 -358.231 392.496 -358.231 610.5C-358.231 828.504 -181.504 1005.23 36.5001 1005.23ZM36.5001 1006.23C255.056 1006.23 432.231 829.056 432.231 610.5C432.231 391.944 255.056 214.769 36.5001 214.769C-182.056 214.769 -359.231 391.944 -359.231 610.5C-359.231 829.056 -182.056 1006.23 36.5001 1006.23ZM365.608 610.5C365.608 792.261 218.261 939.607 36.5 939.607C-145.261 939.607 -292.607 792.261 -292.607 610.5C-292.607 428.739 -145.261 281.393 36.5 281.393C218.261 281.393 365.608 428.739 365.608 610.5ZM366.608 610.5C366.608 792.813 218.813 940.607 36.5 940.607C-145.813 940.607 -293.607 792.813 -293.607 610.5C-293.607 428.187 -145.813 280.393 36.5 280.393C218.813 280.393 366.608 428.187 366.608 610.5ZM36.5 871.995C180.92 871.995 297.995 754.92 297.995 610.5C297.995 466.08 180.92 349.005 36.5 349.005C-107.92 349.005 -224.995 466.08 -224.995 610.5C-224.995 754.92 -107.92 871.995 36.5 871.995ZM36.5 872.995C181.472 872.995 298.995 755.472 298.995 610.5C298.995 465.528 181.472 348.005 36.5 348.005C-108.472 348.005 -225.995 465.528 -225.995 610.5C-225.995 755.472 -108.472 872.995 36.5 872.995ZM242.314 610.5C242.314 724.168 150.168 816.314 36.4999 816.314C-77.1682 816.314 -169.314 724.168 -169.314 610.5C-169.314 496.832 -77.1682 404.686 36.4999 404.686C150.168 404.686 242.314 496.832 242.314 610.5ZM243.314 610.5C243.314 724.72 150.72 817.314 36.4999 817.314C-77.7205 817.314 -170.314 724.72 -170.314 610.5C-170.314 496.28 -77.7205 403.686 36.4999 403.686C150.72 403.686 243.314 496.28 243.314 610.5ZM36.5 758.645C118.318 758.645 184.645 692.318 184.645 610.5C184.645 528.682 118.318 462.355 36.5 462.355C-45.3182 462.355 -111.645 528.682 -111.645 610.5C-111.645 692.318 -45.3182 758.645 36.5 758.645ZM36.5 759.645C118.87 759.645 185.645 692.87 185.645 610.5C185.645 528.129 118.87 461.355 36.5 461.355C-45.8705 461.355 -112.645 528.129 -112.645 610.5C-112.645 692.87 -45.8705 759.645 36.5 759.645ZM36.5 708.93C90.8613 708.93 134.93 664.861 134.93 610.5C134.93 556.139 90.8613 512.07 36.5 512.07C-17.8614 512.07 -61.93 556.139 -61.93 610.5C-61.93 664.861 -17.8614 708.93 36.5 708.93ZM36.5 709.93C91.4136 709.93 135.93 665.414 135.93 610.5C135.93 555.586 91.4136 511.07 36.5 511.07C-18.4137 511.07 -62.93 555.586 -62.93 610.5C-62.93 665.414 -18.4137 709.93 36.5 709.93Z" fill="url(#paint0_linear_610_448)"/>
<defs>
<linearGradient id="paint0_linear_610_448" x1="-14" y1="757.5" x2="524" y2="53.9999" gradientUnits="userSpaceOnUse">
<stop stop-color="#4D4B75"/>
<stop offset="1" stop-color="#4D4B75" stop-opacity="0"/>
</linearGradient>
</defs>
</svg>
