<svg width="142" height="30" viewBox="0 0 142 30" fill="none" xmlns="http://www.w3.org/2000/svg">
<g clip-path="url(#clip0_610_500)">
<path d="M141.309 13.5721V11.1021H138.242V7.26218L138.139 7.29397L135.258 8.17546L135.201 8.19271V11.1023H130.654V9.48139C130.654 8.72666 130.823 8.1491 131.155 7.76392C131.485 7.38337 131.958 7.18989 132.56 7.18989C132.994 7.18989 133.442 7.29193 133.893 7.49314L134.007 7.54369V4.94242L133.953 4.92286C133.532 4.77151 132.96 4.69529 132.25 4.69529C131.355 4.69529 130.542 4.88998 129.833 5.27584C129.124 5.66223 128.566 6.21384 128.175 6.91518C127.785 7.61569 127.588 8.42477 127.588 9.32012V11.1021H125.452V13.5721H127.588V23.9779H130.654V13.5721H135.201V20.1848C135.201 22.9082 136.486 24.2883 139.019 24.2883C139.435 24.2883 139.874 24.2395 140.321 24.144C140.776 24.0459 141.087 23.948 141.269 23.8434L141.31 23.8194V21.3266L141.185 21.4091C141.018 21.5199 140.811 21.6106 140.568 21.6779C140.324 21.7466 140.12 21.7809 139.963 21.7809C139.369 21.7809 138.93 21.621 138.658 21.3054C138.382 20.9869 138.242 20.43 138.242 19.651V13.5721H141.309ZM118.605 21.7813C117.492 21.7813 116.615 21.4123 115.996 20.6855C115.374 19.9549 115.059 18.9134 115.059 17.5901C115.059 16.2248 115.374 15.1562 115.997 14.4127C116.615 13.6742 117.484 13.2993 118.58 13.2993C119.643 13.2993 120.489 13.6573 121.096 14.364C121.705 15.0743 122.014 16.1343 122.014 17.5155C122.014 18.9136 121.723 19.9877 121.15 20.7061C120.581 21.4191 119.724 21.7813 118.605 21.7813ZM118.741 10.7919C116.618 10.7919 114.932 11.4141 113.729 12.6411C112.528 13.8682 111.919 15.5664 111.919 17.6888C111.919 19.7048 112.513 21.3263 113.686 22.5077C114.859 23.6894 116.456 24.288 118.431 24.288C120.489 24.288 122.142 23.6572 123.344 22.4132C124.545 21.1706 125.154 19.4885 125.154 17.4156C125.154 15.3681 124.583 13.7345 123.455 12.561C122.328 11.387 120.741 10.7919 118.741 10.7919ZM106.975 10.7919C105.531 10.7919 104.336 11.1614 103.424 11.8897C102.505 12.6224 102.04 13.5834 102.04 14.7463C102.04 15.3507 102.14 15.8877 102.338 16.3431C102.537 16.8 102.845 17.2023 103.254 17.5399C103.66 17.8748 104.287 18.2256 105.118 18.5825C105.816 18.8699 106.337 19.113 106.668 19.3045C106.991 19.4923 107.221 19.681 107.35 19.8648C107.476 20.0447 107.54 20.2909 107.54 20.5947C107.54 21.4597 106.892 21.8807 105.559 21.8807C105.065 21.8807 104.501 21.7774 103.883 21.5739C103.27 21.3734 102.691 21.0799 102.167 20.7035L102.039 20.6122V23.5642L102.086 23.5859C102.52 23.7862 103.067 23.955 103.712 24.0879C104.355 24.2209 104.94 24.2886 105.448 24.2886C107.015 24.2886 108.277 23.9174 109.198 23.1847C110.124 22.4469 110.594 21.4633 110.594 20.2602C110.594 19.3923 110.341 18.648 109.843 18.0478C109.348 17.4524 108.489 16.9058 107.291 16.4227C106.336 16.0396 105.725 15.7215 105.472 15.4774C105.229 15.2415 105.106 14.908 105.106 14.4855C105.106 14.1111 105.258 13.8111 105.571 13.5682C105.886 13.324 106.325 13.1999 106.876 13.1999C107.387 13.1999 107.909 13.2806 108.429 13.4387C108.949 13.5969 109.405 13.8087 109.786 14.0678L109.911 14.1534V11.3532L109.863 11.3325C109.511 11.1819 109.048 11.0529 108.485 10.9483C107.925 10.8444 107.417 10.7919 106.975 10.7919ZM94.0466 21.7813C92.934 21.7813 92.0563 21.4123 91.4382 20.6855C90.8159 19.9549 90.5012 18.9136 90.5012 17.5901C90.5012 16.2248 90.8163 15.1562 91.4388 14.4127C92.057 13.6742 92.9259 13.2993 94.022 13.2993C95.0848 13.2993 95.9311 13.6573 96.5374 14.364C97.1468 15.0743 97.4559 16.1343 97.4559 17.5155C97.4559 18.9136 97.165 19.9877 96.5916 20.7061C96.0222 21.4191 95.1664 21.7813 94.0466 21.7813ZM94.1833 10.7919C92.0596 10.7919 90.3731 11.4141 89.1714 12.6411C87.9698 13.8682 87.3602 15.5664 87.3602 17.6888C87.3602 19.7056 87.9553 21.3263 89.1283 22.5077C90.3014 23.6894 91.8977 24.288 93.8727 24.288C95.9305 24.288 97.5837 23.6572 98.7856 22.4132C99.987 21.1706 100.596 19.4885 100.596 17.4156C100.596 15.3681 100.025 13.7345 98.8971 12.561C97.769 11.387 96.183 10.7919 94.1833 10.7919ZM82.706 13.3319V11.1021H79.6773V23.9776H82.706V17.3913C82.706 16.2714 82.9599 15.3513 83.461 14.6563C83.9557 13.9697 84.6149 13.6217 85.4198 13.6217C85.6926 13.6217 85.9988 13.6667 86.3305 13.7557C86.6587 13.8441 86.8965 13.9402 87.0367 14.0413L87.164 14.1335V11.0801L87.115 11.059C86.8329 10.9392 86.4339 10.8788 85.929 10.8788C85.1679 10.8788 84.4868 11.1233 83.9034 11.6048C83.3913 12.028 83.0212 12.6083 82.7382 13.3319H82.706ZM74.2535 10.7919C72.864 10.7919 71.6246 11.0899 70.5705 11.6772C69.5141 12.2659 68.6972 13.1064 68.1413 14.1751C67.588 15.2412 67.307 16.4866 67.307 17.8754C67.307 19.0919 67.5794 20.2083 68.1178 21.1922C68.6565 22.1778 69.419 22.9488 70.3842 23.4836C71.348 24.0177 72.462 24.2884 73.6953 24.2884C75.1347 24.2884 76.3636 24.0007 77.3489 23.4332L77.3887 23.4104V20.6356L77.2614 20.7285C76.8151 21.0537 76.3163 21.3132 75.7796 21.5001C75.2443 21.6869 74.7563 21.7813 74.3283 21.7813C73.1399 21.7813 72.1859 21.4095 71.4934 20.6764C70.7994 19.9423 70.4475 18.9115 70.4475 17.6144C70.4475 16.3091 70.8145 15.2518 71.5377 14.4717C72.2587 13.6939 73.2145 13.2993 74.3783 13.2993C75.3738 13.2993 76.3439 13.6364 77.2616 14.3021L77.3887 14.3944V11.4707L77.3476 11.4476C77.0023 11.2543 76.5312 11.0946 75.9465 10.9736C75.3642 10.8528 74.7946 10.7919 74.2535 10.7919ZM65.2211 11.1023H62.1924V23.9776H65.2211V11.1023ZM63.7377 5.61726C63.2392 5.61726 62.8044 5.78696 62.4472 6.12322C62.0886 6.46044 61.9066 6.88501 61.9066 7.38608C61.9066 7.87927 62.0864 8.2961 62.4417 8.62435C62.7947 8.95165 63.2308 9.11754 63.7378 9.11754C64.2447 9.11754 64.6825 8.95165 65.0397 8.6249C65.3992 8.2961 65.5815 7.87941 65.5815 7.38608C65.5815 6.90254 65.4041 6.48231 65.0545 6.13681C64.7052 5.79198 64.262 5.61726 63.7377 5.61726ZM56.1809 10.1523V23.9776H59.2718V6.01141H54.9939L49.5563 19.3562L44.2794 6.01141H39.8273V23.9775H42.7319V10.1509H42.8317L48.4039 23.9776H50.5959L56.0812 10.1523H56.1809Z" fill="#706D6E"/>
<path d="M15.1078 14.2555H0.859984V0.0076828H15.1078V14.2555Z" fill="#F1511B"/>
<path d="M30.839 14.2555H16.5915V0.0076828H30.839V14.2555Z" fill="#80CC28"/>
<path d="M15.1074 29.9923H0.859984V15.7446H15.1074V29.9923Z" fill="#00ADEF"/>
<path d="M30.839 29.9923H16.5915V15.7446H30.839V29.9923Z" fill="#FBBC09"/>
</g>
<defs>
<clipPath id="clip0_610_500">
<rect width="140.449" height="30" fill="white" transform="translate(0.859985)"/>
</clipPath>
</defs>
</svg>
