<svg width="109" height="30" viewBox="0 0 109 30" fill="none" xmlns="http://www.w3.org/2000/svg">
<g clip-path="url(#clip0_610_516)">
<path d="M107.868 26.099C107.868 24.4316 106.686 23.2107 105.057 23.2107C103.431 23.2107 102.247 24.4316 102.247 26.099C102.247 27.7636 103.431 28.9824 105.057 28.9824C106.686 28.9824 107.868 27.7615 107.868 26.099ZM104.319 26.2471V28.1335H103.709V23.9737H105.224C106.111 23.9737 106.518 24.3613 106.518 25.1168C106.518 25.5822 106.204 25.9508 105.799 26.0043V26.0218C106.15 26.078 106.279 26.3918 106.352 26.9661C106.407 27.3381 106.481 27.9834 106.614 28.1349H105.893C105.725 27.7439 105.742 27.1907 105.613 26.7273C105.506 26.3749 105.318 26.2464 104.914 26.2464H104.322V26.2484L104.319 26.2471ZM105.074 25.7093C105.666 25.7093 105.835 25.3941 105.835 25.1162C105.835 24.7874 105.666 24.5277 105.074 24.5277H104.319V25.7107H105.074V25.7093ZM101.577 26.099C101.577 24.0447 103.208 22.6561 105.054 22.6561C106.906 22.6561 108.535 24.0447 108.535 26.099C108.535 28.1491 106.907 29.5391 105.054 29.5391C103.208 29.5391 101.577 28.1491 101.577 26.099Z" fill="#FF5A00"/>
<path d="M89.5258 28.9391L85.5169 24.4431L81.5431 28.9391H73.1815L81.3537 19.7578L73.1815 10.5737H81.8041L85.8537 15.0352L89.7504 10.5737H98.0714L89.9398 19.7192L98.1844 28.9391H89.5258ZM57.1252 28.9391V0.00772095H73.1815V6.45646H63.9264V10.5737H73.1815V16.7789H63.9264V22.4742H73.1815V28.9391H57.1252Z" fill="#FF5A00"/>
<path d="M50.3491 0.00772095V11.848H50.274C48.7745 10.1246 46.9002 9.52391 44.7269 9.52391C40.2735 9.52391 36.9186 12.5535 35.741 16.5557C34.3977 12.1449 30.9339 9.44139 25.7987 9.44139C21.6274 9.44139 18.3347 11.313 16.6146 14.3635V10.573H7.99396V6.45714H17.4026V0.00907557H0.309448V28.9391H7.99396V16.7789H15.6535C15.4175 17.714 15.2996 18.675 15.3024 19.6394C15.3024 25.6715 19.912 29.9104 25.7973 29.9104C30.7445 29.9104 34.0074 27.5857 35.7315 23.3535H29.1455C28.2554 24.6271 27.579 25.0032 25.798 25.0032C23.7337 25.0032 21.952 23.2013 21.952 21.0679H35.3622C35.9439 25.8602 39.6776 29.9923 44.802 29.9923C47.0124 29.9923 49.0362 28.9053 50.2733 27.0689H50.3477V28.9432H57.1232V0.00907557H50.3491V0.00772095ZM22.1658 16.8655C22.5939 15.0271 24.0191 13.8258 25.798 13.8258C27.7569 13.8258 29.1096 14.9899 29.4648 16.8655H22.1658ZM46.2373 24.5365C43.7407 24.5365 42.1891 22.2104 42.1891 19.7808C42.1891 17.1834 43.5392 14.6882 46.2373 14.6882C49.0369 14.6882 50.1523 17.1848 50.1523 19.7808C50.1523 22.2415 48.9713 24.5365 46.2373 24.5365Z" fill="#29007C"/>
</g>
<defs>
<clipPath id="clip0_610_516">
<rect width="108.225" height="30" fill="white" transform="translate(0.309448)"/>
</clipPath>
</defs>
</svg>
