<svg width="101" height="30" viewBox="0 0 101 30" fill="none" xmlns="http://www.w3.org/2000/svg">
<g clip-path="url(#clip0_610_498)">
<path d="M15.8355 2.28882e-05C7.55144 2.28882e-05 0.835571 6.7157 0.835571 14.9997C0.835571 23.2847 7.55144 30 15.8355 30C24.1199 30 30.8354 23.2847 30.8354 14.9997C30.8354 6.71623 24.1202 0.000738813 15.8353 0.000738813L15.8355 2.28882e-05ZM22.7143 21.6339C22.4449 22.0758 21.8693 22.2143 21.4288 21.9451C17.9064 19.7922 13.4729 19.3059 8.2516 20.4987C7.74846 20.614 7.24692 20.2986 7.1323 19.7956C7.01712 19.2925 7.33111 18.791 7.83551 18.6763C13.5494 17.37 18.4506 17.9323 22.4043 20.3482C22.8449 20.6187 22.9846 21.1937 22.7142 21.6343L22.7143 21.6339ZM24.5503 17.5502C24.211 18.1006 23.4914 18.2733 22.9416 17.9353C18.9106 15.4574 12.7638 14.7397 7.99475 16.1873C7.37625 16.3741 6.72301 16.0256 6.53529 15.4081C6.34901 14.7896 6.69776 14.1377 7.31517 13.9496C12.7627 12.2967 19.5348 13.0973 24.165 15.9426C24.7149 16.2812 24.8887 17.0012 24.5501 17.5504L24.5503 17.5502ZM24.7079 13.2972C19.8728 10.4258 11.8974 10.1618 7.28166 11.5626C6.54048 11.7874 5.75666 11.369 5.53204 10.6278C5.30743 9.88628 5.72549 9.10299 6.46722 8.87766C11.7657 7.26918 20.5739 7.57995 26.1398 10.8841C26.8065 11.2798 27.0252 12.1408 26.63 12.8066C26.236 13.4733 25.3726 13.6931 24.7081 13.2972H24.7079ZM41.6454 13.8475C39.0555 13.2299 38.5944 12.7964 38.5944 11.8856C38.5944 11.0251 39.4046 10.446 40.6093 10.446C41.7772 10.446 42.9352 10.8858 44.1492 11.791C44.186 11.8184 44.232 11.8293 44.2773 11.8222C44.3226 11.8154 44.3628 11.7905 44.3893 11.7531L45.6539 9.97046C45.7058 9.89702 45.6916 9.79583 45.6216 9.73976C44.1767 8.58033 42.5496 8.01664 40.6477 8.01664C37.8513 8.01664 35.898 9.69479 35.898 12.0959C35.898 14.6707 37.583 15.5824 40.4947 16.2862C42.973 16.857 43.3912 17.3353 43.3912 18.1902C43.3912 19.1376 42.5454 19.7265 41.1843 19.7265C39.6726 19.7265 38.4395 19.2173 37.0601 18.0227C37.0259 17.9932 36.979 17.9797 36.9356 17.9823C36.89 17.986 36.8482 18.0071 36.8192 18.0421L35.4013 19.7296C35.3418 19.7996 35.3494 19.9042 35.4182 19.9647C37.023 21.3975 38.9969 22.1543 41.127 22.1543C44.1403 22.1543 46.0875 20.5078 46.0875 17.9595C46.0929 15.8083 44.805 14.6172 41.6508 13.8498L41.6454 13.8475ZM52.9047 11.2932C51.5986 11.2932 50.5273 11.8077 49.6439 12.8618V11.6753C49.6439 11.5816 49.5679 11.5053 49.4744 11.5053H47.1554C47.0617 11.5053 46.986 11.5816 46.986 11.6753V24.8588C46.986 24.9524 47.0617 25.0288 47.1554 25.0288H49.4744C49.5679 25.0288 49.6439 24.9525 49.6439 24.8588V20.6973C50.5275 21.6889 51.599 22.1734 52.9047 22.1734C55.3316 22.1734 57.7884 20.3052 57.7884 16.734C57.792 13.1618 55.3345 11.2931 52.9074 11.2931L52.9047 11.2932ZM55.0918 16.734C55.0918 18.5526 53.9716 19.8216 52.3676 19.8216C50.7818 19.8216 49.5857 18.4949 49.5857 16.734C49.5857 14.9732 50.7818 13.6463 52.3676 13.6463C53.9456 13.6462 55.092 14.9444 55.092 16.7338L55.0918 16.734ZM64.0853 11.2932C60.9599 11.2932 58.5113 13.6999 58.5113 16.7728C58.5113 19.8123 60.943 22.1937 64.047 22.1937C67.1835 22.1937 69.6396 19.7951 69.6396 16.734C69.6396 13.6834 67.2 11.2936 64.0851 11.2936L64.0853 11.2932ZM64.0853 19.8397C62.4229 19.8397 61.1696 18.504 61.1696 16.7331C61.1696 14.9546 62.3796 13.6641 64.047 13.6641C65.7201 13.6641 66.9818 14.9997 66.9818 16.7719C66.9818 18.5501 65.7638 19.8397 64.0855 19.8397H64.0853ZM76.3137 11.5053H73.7618V8.89629C73.7618 8.80279 73.6862 8.72649 73.5926 8.72649H71.2739C71.18 8.72649 71.1039 8.80279 71.1039 8.89629V11.5053H69.9889C69.8956 11.5053 69.82 11.5816 69.82 11.6753V13.6684C69.82 13.7619 69.8956 13.8383 69.9889 13.8383H71.1039V18.9953C71.1039 21.0794 72.1412 22.136 74.1869 22.136C75.0187 22.136 75.7088 21.9642 76.3592 21.5954C76.4121 21.5659 76.4448 21.5089 76.4448 21.4484V19.5504C76.4448 19.4919 76.4144 19.4365 76.3642 19.4059C76.3137 19.3742 76.2509 19.3726 76.1991 19.3982C75.7523 19.623 75.3205 19.7267 74.8378 19.7267C74.0937 19.7267 73.7618 19.3889 73.7618 18.6317V13.8393H76.3137C76.4074 13.8393 76.4828 13.7629 76.4828 13.6693V11.6764C76.4864 11.5827 76.4112 11.5064 76.3162 11.5064L76.3137 11.5053ZM85.2052 11.5155V11.1951C85.2052 10.2524 85.5666 9.832 86.3773 9.832C86.8608 9.832 87.2491 9.92801 87.684 10.0731C87.7376 10.0899 87.7934 10.0815 87.837 10.0494C87.8817 10.0174 87.907 9.96598 87.907 9.91153V7.95734C87.907 7.88265 87.859 7.81656 87.787 7.79452C87.3275 7.65785 86.7397 7.5176 85.8595 7.5176C83.7176 7.5176 82.5854 8.72379 82.5854 11.0045V11.4953H81.4713C81.3778 11.4953 81.3011 11.5716 81.3011 11.6651V13.6684C81.3011 13.7619 81.3778 13.8383 81.4713 13.8383H82.5854V21.7928C82.5854 21.8865 82.661 21.9628 82.7545 21.9628H85.0735C85.1672 21.9628 85.2435 21.8865 85.2435 21.7928V13.8389H87.4087L90.7254 21.7914C90.3489 22.627 89.9787 22.7932 89.4732 22.7932C89.0646 22.7932 88.6344 22.6712 88.1945 22.4305C88.1531 22.4077 88.104 22.404 88.0594 22.4178C88.0152 22.4333 87.9779 22.4663 87.9591 22.5093L87.1731 24.2336C87.1357 24.3152 87.1678 24.4108 87.2462 24.4531C88.0668 24.8975 88.8074 25.0871 89.7229 25.0871C91.4353 25.0871 92.3817 24.2895 93.2161 22.1437L97.2392 11.7477C97.2595 11.6954 97.2534 11.6363 97.2213 11.5899C97.1895 11.5438 97.1381 11.5161 97.0818 11.5161H94.6676C94.5953 11.5161 94.5306 11.5621 94.507 11.63L92.0339 18.6941L89.3251 11.6253C89.3004 11.5596 89.237 11.5161 89.1668 11.5161H85.2046L85.2052 11.5155ZM80.0501 11.5053H77.7311C77.6374 11.5053 77.5611 11.5816 77.5611 11.6753V21.7928C77.5611 21.8865 77.6374 21.9628 77.7311 21.9628H80.0501C80.1436 21.9628 80.2201 21.8865 80.2201 21.7928V11.676C80.2202 11.6537 80.2158 11.6315 80.2073 11.6109C80.1987 11.5902 80.1862 11.5714 80.1704 11.5556C80.1546 11.5399 80.1358 11.5273 80.1151 11.5188C80.0944 11.5103 80.0723 11.506 80.0499 11.506L80.0501 11.5053ZM78.9038 6.89859C77.9851 6.89859 77.2396 7.64228 77.2396 8.56098C77.2396 9.48022 77.9853 10.2248 78.9038 10.2248C79.8221 10.2248 80.5669 9.48022 80.5669 8.56098C80.5669 7.64246 79.8218 6.89859 78.9047 6.89859H78.9038ZM99.2194 14.7583C98.3016 14.7583 97.5874 14.0212 97.5874 13.1262C97.5874 12.2311 98.3109 11.4856 99.228 11.4856C100.146 11.4856 100.86 12.2225 100.86 13.1169C100.86 14.0119 100.136 14.7583 99.2192 14.7583H99.2194ZM99.2283 11.6479C98.3924 11.6479 97.7599 12.3124 97.7599 13.1262C97.7599 13.9395 98.3879 14.5951 99.2199 14.5951C100.056 14.5951 100.689 13.9311 100.689 13.1169C100.689 12.3035 100.06 11.6479 99.2291 11.6479H99.2283ZM99.5902 13.2847L100.052 13.931H99.6626L99.247 13.3381H98.8897V13.931H98.5639V12.2179H99.3278C99.7258 12.2179 99.9875 12.4215 99.9875 12.7644C99.9893 13.0452 99.8263 13.2168 99.5916 13.2847L99.5902 13.2847ZM99.3143 12.5118H98.8894V13.0536H99.3143C99.5264 13.0536 99.653 12.9499 99.653 12.7825C99.653 12.6062 99.5259 12.5118 99.3145 12.5118L99.3143 12.5118Z" fill="#2EBD59"/>
</g>
<defs>
<clipPath id="clip0_610_498">
<rect width="100.024" height="30" fill="white" transform="translate(0.835571)"/>
</clipPath>
</defs>
</svg>
