<svg width="65" height="40" viewBox="0 0 65 40" fill="none" xmlns="http://www.w3.org/2000/svg">
<path d="M41.1071 35.723H23.6084V4.27539H41.1074L41.1071 35.723Z" fill="#FF5F00"/>
<path d="M24.7181 20C24.7181 13.6209 27.705 7.93828 32.3561 4.27619C28.8354 1.50008 24.4809 -0.00660294 19.9974 2.17528e-05C8.95287 2.17528e-05 0 8.95418 0 20C0 31.0458 8.95287 40 19.9974 40C24.481 40.0067 28.8357 38.5 32.3564 35.7238C27.7056 32.0624 24.7181 26.3795 24.7181 20Z" fill="#EB001B"/>
<path d="M64.7155 20C64.7155 31.0458 55.7626 40 44.7181 40C40.234 40.0066 35.8789 38.4999 32.3574 35.7238C37.0099 32.0617 39.9967 26.3795 39.9967 20C39.9967 13.6205 37.0099 7.93828 32.3574 4.27619C35.8788 1.50017 40.2338 -0.00648682 44.7178 2.0994e-05C55.7623 2.0994e-05 64.7152 8.95418 64.7152 20" fill="#F79E1B"/>
</svg>
