<svg width="129" height="30" viewBox="0 0 129 30" fill="none" xmlns="http://www.w3.org/2000/svg">
<path fill-rule="evenodd" clip-rule="evenodd" d="M102.531 9.52879C102.996 10.3311 103.148 11.2438 103.198 12.27L103.264 13.6378V23.2019L103.332 24.5711C103.467 26.8071 105.116 28.4605 107.369 28.6011L108.731 28.6686V13.6378L108.798 12.27C108.854 11.2553 109.005 10.3253 109.477 9.5173C109.958 8.68853 110.649 8.00092 111.48 7.52351C112.311 7.0461 113.253 6.7957 114.211 6.79744C115.169 6.79919 116.11 7.05302 116.94 7.53345C117.769 8.01388 118.457 8.704 118.935 9.53453C119.4 10.3368 119.545 11.2668 119.601 12.27L119.668 13.6334V23.2019L119.736 24.5711C119.877 26.8186 121.513 28.4719 123.773 28.6011L125.135 28.6686V12.27C125.135 9.3703 123.983 6.58929 121.933 4.53847C119.883 2.48766 117.103 1.33496 114.203 1.33381C112.651 1.33218 111.117 1.66176 109.702 2.30055C108.288 2.93934 107.026 3.87263 106.001 5.03806C104.976 3.87309 103.714 2.94003 102.299 2.30105C100.885 1.66207 99.3509 1.33185 97.7989 1.33238C95.5284 1.33238 93.4216 2.02127 91.6764 3.21105C90.6115 2.02271 88.229 1.33238 86.8613 1.33238V28.6686L88.229 28.6011C90.5167 28.4504 92.1701 26.8416 92.2591 24.5711L92.3323 23.2019V13.6378L92.3997 12.27C92.4571 11.2381 92.6006 10.3311 93.0671 9.52304C93.5486 8.69478 94.239 8.00734 95.0694 7.52934C95.8997 7.05135 96.8408 6.79953 97.7989 6.79904C98.7577 6.79925 99.6996 7.05156 100.53 7.53068C101.361 8.0098 102.051 8.69887 102.531 9.52879ZM8.95165 28.6025L10.3194 28.6686H30.8212L30.7537 27.3051C30.5686 25.0576 28.9769 23.4157 26.7223 23.2694L25.3545 23.2019H13.0549L29.4534 6.79761L29.386 5.43561C29.2798 3.16512 27.6207 1.5247 25.3545 1.39983L23.9868 1.33812L3.48499 1.33238L3.55244 2.70012C3.73184 4.92611 5.34644 6.60242 7.58247 6.73159L8.95165 6.79904H21.2513L4.85273 23.2033L4.92018 24.5711C5.05509 26.8243 6.68117 28.4562 8.95165 28.6011V28.6025ZM81.4951 5.33371C82.7645 6.60288 83.7715 8.10969 84.4586 9.76808C85.1456 11.4265 85.4992 13.204 85.4992 14.999C85.4992 16.7941 85.1456 18.5716 84.4586 20.23C83.7715 21.8884 82.7645 23.3952 81.4951 24.6644C78.9304 27.227 75.4532 28.6665 71.8276 28.6665C68.202 28.6665 64.7248 27.227 62.1601 24.6644C56.8226 19.3269 56.8226 10.6712 62.1601 5.33371C63.4284 4.06496 64.9342 3.05845 66.5914 2.37165C68.2487 1.68486 70.025 1.33122 71.819 1.33094C73.6159 1.3297 75.3953 1.68271 77.0557 2.36979C78.716 3.05686 80.2246 4.06453 81.4951 5.33514V5.33371ZM77.6272 9.20443C79.1646 10.743 80.0282 12.829 80.0282 15.0041C80.0282 17.1791 79.1646 19.2651 77.6272 20.8037C76.0887 22.3411 74.0026 23.2047 71.8276 23.2047C69.6526 23.2047 67.5665 22.3411 66.028 20.8037C64.4906 19.2651 63.627 17.1791 63.627 15.0041C63.627 12.829 64.4906 10.743 66.028 9.20443C67.5665 7.66703 69.6526 6.80343 71.8276 6.80343C74.0026 6.80343 76.0887 7.66703 77.6272 9.20443ZM43.1323 1.33094C44.9263 1.33141 46.7027 1.68527 48.36 2.37232C50.0173 3.05936 51.523 4.06614 52.7912 5.33514C58.1301 10.6712 58.1301 19.3283 52.7912 24.6644C50.2265 27.227 46.7492 28.6665 43.1237 28.6665C39.4981 28.6665 36.0209 27.227 33.4562 24.6644C28.1187 19.3269 28.1187 10.6712 33.4562 5.33371C34.7245 4.06496 36.2302 3.05845 37.8875 2.37165C39.5448 1.68486 41.3211 1.33122 43.1151 1.33094H43.1323ZM48.9233 9.20156C50.4611 10.7402 51.325 12.8265 51.325 15.0019C51.325 17.1773 50.4611 19.2636 48.9233 20.8023C47.3847 22.3397 45.2987 23.2033 43.1237 23.2033C40.9486 23.2033 38.8626 22.3397 37.324 20.8023C35.7867 19.2637 34.923 17.1777 34.923 15.0026C34.923 12.8276 35.7867 10.7416 37.324 9.203C38.8626 7.6656 40.9486 6.802 43.1237 6.802C45.2987 6.802 47.3847 7.66416 48.9233 9.20156Z" fill="#2D8CFF"/>
</svg>
