<svg width="128" height="30" viewBox="0 0 128 30" fill="none" xmlns="http://www.w3.org/2000/svg">
<g clip-path="url(#clip0_654_3034)">
<path d="M9.38184 15.003C9.38184 11.9065 11.9014 9.39551 15.0118 9.39551C18.1211 9.39551 20.6418 11.9055 20.6418 15.003C20.6418 18.1016 18.1222 20.6115 15.0129 20.6115C11.9025 20.6115 9.38184 18.0994 9.38184 15.003Z" fill="#00AA13"/>
<path d="M15.0104 0.0509725C6.72038 0.0509725 0 6.74562 0 15.0046C0 21.2039 3.75796 26.4961 9.21425 28.7991C9.59794 28.9604 10.0126 29.0345 10.4284 29.016C10.8442 28.9976 11.2507 28.8871 11.6186 28.6926C11.9866 28.498 12.3067 28.2242 12.556 27.8909C12.8053 27.5576 12.9774 27.1731 13.0601 26.7652C13.1876 26.1294 13.0906 25.469 12.7856 24.8967C12.4806 24.3244 11.9865 23.8757 11.3875 23.627V23.6259C8.00591 22.2139 5.62891 18.8869 5.62891 15.0046C5.62891 9.84205 9.82861 5.65736 15.0115 5.65736C20.1944 5.65736 24.3951 9.84205 24.3951 15.0046C24.3951 18.8858 22.0181 22.2139 18.6354 23.6248V23.627C18.0364 23.8759 17.5423 24.3249 17.2374 24.8975C16.9326 25.4701 16.8359 26.1307 16.9638 26.7666C17.0917 27.4026 17.4363 27.9744 17.9389 28.3846C18.4414 28.7947 19.0707 29.0178 19.7194 29.0157C20.0924 29.0134 20.4615 28.9395 20.8066 28.7981C26.2629 26.495 30.0219 21.2017 30.0219 15.0035C30.0219 6.74347 23.3005 0.0488281 15.0104 0.0488281" fill="#00AA13"/>
<path d="M73.5764 13.3448C73.5764 10.6397 71.714 8.62827 68.8106 8.62827C65.905 8.62827 64.0437 10.6407 64.0437 13.3458C64.0437 16.0488 65.9061 18.0634 68.8106 18.0634C71.714 18.0634 73.5764 16.0488 73.5764 13.3448ZM59.3712 13.3458C59.3712 8.37738 63.3168 4.54008 68.8106 4.54008C74.3344 4.54008 78.2489 8.37738 78.2489 13.3458C78.2489 18.3143 74.3344 22.1505 68.8106 22.1505C63.3179 22.1505 59.3712 18.3143 59.3712 13.3458ZM76.645 25.7487H79.1699C80.5273 25.7487 81.0012 25.2448 81.0012 24.0504V4.54544H85.6727V24.1126C85.6727 28.233 84.0001 29.9935 79.5495 29.9935H76.6439V25.7477L76.645 25.7487ZM51.8821 14.255C51.8821 16.3136 49.7849 17.9583 47.1163 17.9583C44.0992 17.9583 42.2239 16.186 42.2239 13.2429C42.2239 10.5217 44.2257 8.65401 47.3071 8.65401C49.7538 8.65401 51.8821 10.363 51.8821 12.293V14.255ZM52.0729 4.53472V6.50108H52.0086C50.8013 5.23592 48.8006 4.53901 46.4183 4.53901C41.3029 4.53901 37.5225 8.33664 37.5225 13.2418C37.5225 18.3379 41.3984 22.0722 46.577 22.0722C48.895 22.0722 50.8335 21.3432 52.0097 20.0458H52.074V21.742C52.074 24.0204 50.1033 25.6973 47.498 25.6973C44.8711 25.6973 43.3422 24.9596 42.0149 23.6955L38.9731 26.6118C41.0113 28.7669 44.0842 29.9924 47.5934 29.9924C52.9317 29.9924 56.5835 26.4253 56.5835 21.6788V4.53472H52.0729ZM97.6113 8.31305C100.104 8.31305 101.841 9.60288 102.062 11.5532H93.0964C93.3494 9.60288 95.0863 8.31305 97.6113 8.31305ZM98.0938 18.3765C95.2933 18.3765 93.0921 16.5731 93.0342 14.8233H106.608V13.5034C106.608 8.50283 103.135 4.54008 97.5159 4.54008C92.2129 4.54008 88.4249 8.25194 88.4249 13.378C88.4249 18.6606 92.4209 22.1505 98.2943 22.1505C101.892 22.1505 104.473 20.4318 105.82 18.786L102.654 16.5752C101.246 17.8843 99.9669 18.3765 98.0938 18.3765ZM109.36 0.00585938H113.87L113.894 11.5532H113.956L121.506 4.50041H127.551L119.726 11.878L127.52 22.1366H122.122L116.77 14.7225H116.709L113.87 17.4019V22.1494H109.36V0.00585938Z" fill="black"/>
</g>
<defs>
<clipPath id="clip0_654_3034">
<rect width="127.551" height="30" fill="white"/>
</clipPath>
</defs>
</svg>
