<svg width="101" height="30" viewBox="0 0 101 30" fill="none" xmlns="http://www.w3.org/2000/svg">
<g clip-path="url(#clip0_610_506)">
<path d="M36.2806 11.7694C36.2806 8.7908 38.4523 6.71095 42.3989 6.71095C44.807 6.71095 46.7775 7.47982 47.8451 8.233C47.9979 8.34054 48.2704 8.60145 48.107 9.08669C47.8976 9.60932 47.5134 10.3953 47.2379 10.9058C47.0774 11.2033 46.6678 11.1641 46.4579 11.0578C45.6975 10.6725 44.4503 10.0206 43.3045 9.90038C43.0144 9.86879 42.7225 9.85617 42.4307 9.86259C41.4216 9.8851 40.5786 10.2355 40.2817 11.0053C40.2235 11.151 40.1911 11.3057 40.1858 11.4624C40.1581 12.4769 41.57 12.8438 43.2804 13.1376C46.4601 13.6824 48.8658 14.6147 48.8658 17.8875C48.8658 20.6669 46.6569 23.1787 42.329 23.1017C39.4759 23.044 37.4517 22.08 36.367 21.1445C36.3301 21.1127 35.9172 20.6922 36.1385 20.1865C36.3918 19.5354 36.8193 18.7892 37.1548 18.3931C37.3413 18.1386 37.8336 18.0982 38.0895 18.2568C38.9836 18.8124 40.455 19.7032 42.1511 19.7623C42.285 19.767 42.4176 19.7678 42.5479 19.7643C44.0736 19.7274 44.9966 19.1488 44.9773 18.1744C44.9608 17.3158 43.7511 16.8143 41.8249 16.4513C38.7526 15.8726 36.281 14.8599 36.281 11.7694M64.1914 16.0105C62.025 16.0388 60.0386 16.631 59.9813 18.3241C59.9807 19.6677 61.0706 20.3276 62.6002 20.2411C64.0676 20.0998 65.1866 19.4634 65.6797 18.619C65.862 18.306 65.8898 17.1349 65.8787 16.6344C65.8759 16.5279 65.6652 16.3263 65.573 16.2875C65.1127 16.0935 64.772 16.0336 64.1912 16.0101M56.9826 9.1882C57.9957 8.28165 60.0044 6.87056 63.2057 6.94493C67.4303 7.03277 69.6621 9.01332 69.87 13.7511C69.9556 15.7049 69.8137 21.1547 69.7799 22.5125C69.7749 22.7073 69.709 22.842 69.4464 22.847C68.7507 22.875 67.1435 22.8639 66.405 22.8543C66.0323 22.8362 65.9891 22.6512 65.9842 22.4577C65.981 22.331 65.9702 21.9556 65.9623 21.6494C65.9581 21.487 65.8055 21.4916 65.7666 21.5332C64.7756 22.5913 63.1526 23.1023 61.4267 23.1023C58.8036 23.1023 56.1884 21.5592 56.1965 18.5032C56.2045 15.3735 58.4237 13.8297 60.8615 13.4657C62.4225 13.2333 64.1822 13.44 65.5147 13.9694C65.5999 14.0036 65.774 13.9541 65.7754 13.8333C65.7808 13.4345 65.7615 12.6745 65.6849 12.3143C65.4894 11.3965 64.7237 10.658 63.1152 10.459C62.784 10.4182 62.4505 10.4047 62.1166 10.4312C60.838 10.5318 59.2993 11.5288 58.6621 11.902C58.5121 11.9897 58.2773 11.9256 58.2013 11.8277C57.8295 11.3472 56.8948 9.94219 56.8212 9.71766C56.7476 9.49374 56.8514 9.30519 56.9822 9.1874L56.9826 9.1882ZM71.263 15.0143C71.2378 10.6493 74.2791 6.96704 79.2175 6.93468C82.299 6.91458 84.5377 8.3116 84.9324 8.97051C85.0127 9.12529 84.9714 9.25453 84.916 9.41032C84.6551 9.96108 83.9961 11.0252 83.5266 11.6283C83.3266 11.8852 83.1095 11.665 82.8572 11.4972C82.1571 11.0309 80.8268 10.4606 79.5176 10.4606C77.1425 10.461 75.3738 12.0896 75.3935 15.0858C75.412 17.9611 77.1061 19.5412 79.5259 19.5985C80.7908 19.6303 82.0164 18.9032 82.6757 18.3076C82.8828 18.1269 83.097 18.2174 83.3336 18.4023C83.7979 18.8769 84.4639 19.6096 84.8332 20.1139C85.075 20.3941 84.8941 20.6683 84.807 20.7784C83.8052 22.0462 81.8703 23.1132 79.3096 23.1276C73.9479 23.1652 71.2881 19.3953 71.2634 15.0149M96.857 22.9309C97.1086 22.912 99.7943 22.5413 100.619 22.3525C100.823 22.3059 100.896 22.1338 100.782 21.9634C100.321 21.2731 99.1111 19.3129 97.8435 17.5581C96.6777 15.9445 95.4489 14.5254 95.0515 13.9795C94.9546 13.8468 94.9598 13.7162 95.0654 13.6132C95.8214 12.8735 98.9836 9.77294 100.173 8.49251C100.633 7.9944 100.357 7.78013 99.9656 7.66374C99.2104 7.43861 97.9888 7.158 97.2942 7.01146C97.0013 6.94955 96.6485 6.97126 96.3924 7.23459C95.2037 8.34316 91.5756 11.9845 90.4926 13.0729C90.2976 13.2693 90.184 13.2257 90.183 12.9451C90.1742 10.8465 90.1328 1.86179 90.0578 0.383965C90.0526 0.188584 89.8176 0.0402381 89.6851 0.0332027C89.0041 -0.00237605 87.2837 -0.0126277 86.6057 0.0271723C86.4157 0.0486803 86.2342 0.242253 86.2177 0.405875C86.0613 2.76895 86.284 20.1157 86.3769 22.5423C86.3835 22.7178 86.5142 22.8539 86.6808 22.8637C87.3572 22.9029 89.0302 22.9003 89.8114 22.8856C90.1957 22.8856 90.2427 22.6155 90.2427 22.6155L90.3006 17.9607C90.3006 17.9607 90.3402 17.7536 90.4043 17.6853C90.6797 17.3888 91.4416 16.5723 91.7664 16.2567C91.8444 16.1809 91.9674 16.1864 92.047 16.2935C92.4329 16.8141 93.5335 18.5066 94.5536 20.0182C95.4909 21.4068 96.3659 22.6392 96.427 22.7262C96.5681 22.9272 96.7329 22.9353 96.8572 22.9315V22.9309H96.857ZM51.1809 22.9148C51.4171 22.9226 53.2091 22.9206 54.003 22.9196C54.2704 22.9248 54.4093 22.7224 54.4181 22.5437C54.5868 19.1414 54.5146 2.94282 54.4081 0.38497C54.3992 0.163859 54.3046 0.0808423 54.1536 0.0607413C53.4722 -0.0305172 51.5356 -0.00921037 50.9149 0.153206C50.7935 0.184764 50.722 0.277028 50.7181 0.395624C50.5662 6.98875 50.6687 22.1891 50.7009 22.477C50.7328 22.7652 50.8836 22.9047 51.1813 22.9148H51.1809Z" fill="#443642"/>
<path d="M3.22128 16.15C2.11693 16.1584 1.18143 15.5003 0.836496 14.4732C0.8237 14.4344 0.81177 14.3953 0.800716 14.356C0.424827 13.0406 1.15369 11.6644 2.46005 11.2238L23.4133 4.20396C23.6621 4.13198 23.9196 4.09438 24.1786 4.0922C25.3123 4.08335 26.2735 4.75593 26.6269 5.8048L26.6582 5.90611C27.0502 7.27619 26.0763 8.49914 24.9094 8.89111C24.9086 8.89171 24.6964 8.96347 4.07235 16.005C3.79822 16.0985 3.51089 16.1474 3.22128 16.15Z" fill="#70CADB"/>
<path d="M6.71383 26.4548C5.60083 26.4628 4.66212 25.8139 4.3212 24.8014C4.30826 24.7629 4.2962 24.7241 4.28502 24.6851C3.90391 23.354 4.63196 21.9634 5.94275 21.5222L26.8968 14.438C27.1676 14.3475 27.4472 14.3013 27.7284 14.2987C28.8444 14.2902 29.8249 14.9721 30.1709 15.996L30.203 16.1025C30.4055 16.8103 30.2859 17.6057 29.8834 18.2334C29.5835 18.7002 28.6376 19.1111 28.6376 19.1111L7.6039 26.303C7.31703 26.4001 7.01666 26.4515 6.71383 26.4552V26.4548Z" fill="#E01765"/>
<path d="M24.1567 26.4996C23.6135 26.5048 23.0827 26.338 22.6402 26.023C22.1977 25.708 21.8662 25.2611 21.6933 24.7462L14.7001 3.9738L14.6652 3.85721C14.2863 2.53256 15.0149 1.15082 16.3209 0.710604C16.5822 0.622763 16.8524 0.576932 17.1243 0.57452C17.5284 0.571505 17.9193 0.662562 18.2876 0.844476C18.5909 0.994487 18.8616 1.20299 19.0841 1.45799C19.3065 1.71299 19.4764 2.00946 19.5839 2.33034L26.5764 23.1009L26.5967 23.1676C26.9895 24.5429 26.2624 25.9255 24.9565 26.3657C24.6985 26.4519 24.4286 26.4971 24.1567 26.4996Z" fill="#E8A723"/>
<path d="M13.7618 29.9984C13.2184 30.0035 12.6873 29.8365 12.2446 29.5213C11.8019 29.2061 11.4703 28.7588 11.2975 28.2435L4.30613 7.47198C4.1978 7.15152 4.15374 6.81285 4.17647 6.47534C4.1992 6.13784 4.28828 5.80813 4.4386 5.5051C4.58892 5.20207 4.79753 4.93166 5.0525 4.70936C5.30746 4.48705 5.60377 4.31722 5.92446 4.20958C6.1828 4.12322 6.4531 4.07791 6.72548 4.07531C7.2687 4.06995 7.79966 4.23671 8.24226 4.5517C8.68487 4.86669 9.01637 5.31372 9.18926 5.82872L16.1808 26.6011C16.2892 26.9217 16.3332 27.2605 16.3104 27.5982C16.2876 27.9359 16.1984 28.2657 16.0479 28.5688C15.8974 28.8719 15.6885 29.1424 15.4333 29.3646C15.1781 29.5869 14.8816 29.7566 14.5606 29.8641C14.3028 29.9505 14.033 29.9957 13.761 29.9982L13.7618 29.9984Z" fill="#3EB890"/>
<path d="M20.7092 21.8217L25.5853 20.1545L23.9913 15.4207L19.1095 17.0704L20.7092 21.8217Z" fill="#CC2027"/>
<path d="M10.3304 25.3703L15.2061 23.7033L13.6 18.9334L8.71951 20.5837L10.3304 25.3703Z" fill="#361238"/>
<path d="M17.2377 11.5107L22.1142 9.84571L20.5389 5.1672L15.6534 6.80402L17.2377 11.5107Z" fill="#65863A"/>
<path d="M6.85775 15.0545L11.7342 13.3895L10.1396 8.6513L5.25409 10.2879L6.85775 15.0545Z" fill="#1A937D"/>
</g>
<defs>
<clipPath id="clip0_610_506">
<rect width="100.134" height="30" fill="white" transform="translate(0.702026)"/>
</clipPath>
</defs>
</svg>
