<svg width="100" height="100" viewBox="0 0 100 100" fill="none" xmlns="http://www.w3.org/2000/svg">
<rect width="100" height="100" rx="18" fill="#FAFAFA"/>
<path d="M50.3736 34.3636V46H48.7599L42.8452 37.4659H42.7372V46H40.9815V34.3636H42.6065L48.527 42.9091H48.6349V34.3636H50.3736ZM56.4744 46.1761C55.6563 46.1761 54.9422 45.9886 54.3324 45.6136C53.7225 45.2386 53.2491 44.714 52.9119 44.0398C52.5748 43.3655 52.4062 42.5777 52.4062 41.6761C52.4062 40.7708 52.5748 39.9792 52.9119 39.3011C53.2491 38.6231 53.7225 38.0966 54.3324 37.7216C54.9422 37.3466 55.6563 37.1591 56.4744 37.1591C57.2926 37.1591 58.0066 37.3466 58.6165 37.7216C59.2263 38.0966 59.6998 38.6231 60.0369 39.3011C60.3741 39.9792 60.5426 40.7708 60.5426 41.6761C60.5426 42.5777 60.3741 43.3655 60.0369 44.0398C59.6998 44.714 59.2263 45.2386 58.6165 45.6136C58.0066 45.9886 57.2926 46.1761 56.4744 46.1761ZM56.4801 44.75C57.0104 44.75 57.4498 44.6098 57.7983 44.3295C58.1468 44.0492 58.4044 43.6761 58.571 43.2102C58.7415 42.7443 58.8267 42.2311 58.8267 41.6705C58.8267 41.1136 58.7415 40.6023 58.571 40.1364C58.4044 39.6667 58.1468 39.2898 57.7983 39.0057C57.4498 38.7216 57.0104 38.5795 56.4801 38.5795C55.946 38.5795 55.5028 38.7216 55.1506 39.0057C54.8021 39.2898 54.5426 39.6667 54.3722 40.1364C54.2055 40.6023 54.1222 41.1136 54.1222 41.6705C54.1222 42.2311 54.2055 42.7443 54.3722 43.2102C54.5426 43.6761 54.8021 44.0492 55.1506 44.3295C55.5028 44.6098 55.946 44.75 56.4801 44.75ZM29.2784 65V53.3636H33.4261C34.3314 53.3636 35.0814 53.5284 35.6761 53.858C36.2708 54.1875 36.7159 54.6383 37.0114 55.2102C37.3068 55.7784 37.4545 56.4186 37.4545 57.1307C37.4545 57.8466 37.3049 58.4905 37.0057 59.0625C36.7102 59.6307 36.2633 60.0814 35.6648 60.4148C35.0701 60.7443 34.322 60.9091 33.4205 60.9091H30.5682V59.4205H33.2614C33.8333 59.4205 34.2973 59.322 34.6534 59.125C35.0095 58.9242 35.2708 58.6515 35.4375 58.3068C35.6042 57.9621 35.6875 57.5701 35.6875 57.1307C35.6875 56.6913 35.6042 56.3011 35.4375 55.9602C35.2708 55.6193 35.0076 55.3523 34.6477 55.1591C34.2917 54.9659 33.822 54.8693 33.2386 54.8693H31.0341V65H29.2784ZM41.0753 59.8182V65H39.3764V53.3636H41.0526V57.6932H41.1605C41.3651 57.2235 41.6776 56.8504 42.098 56.5739C42.5185 56.2973 43.0677 56.1591 43.7457 56.1591C44.3442 56.1591 44.867 56.2822 45.3139 56.5284C45.7647 56.7746 46.1132 57.142 46.3594 57.6307C46.6094 58.1155 46.7344 58.7216 46.7344 59.4489V65H45.0355V59.6534C45.0355 59.0133 44.8707 58.517 44.5412 58.1648C44.2116 57.8087 43.7533 57.6307 43.1662 57.6307C42.7647 57.6307 42.4048 57.7159 42.0866 57.8864C41.7723 58.0568 41.5241 58.3068 41.3423 58.6364C41.1643 58.9621 41.0753 59.3561 41.0753 59.8182ZM52.6776 65.1761C51.8594 65.1761 51.1454 64.9886 50.5355 64.6136C49.9257 64.2386 49.4522 63.714 49.1151 63.0398C48.7779 62.3655 48.6094 61.5777 48.6094 60.6761C48.6094 59.7708 48.7779 58.9792 49.1151 58.3011C49.4522 57.6231 49.9257 57.0966 50.5355 56.7216C51.1454 56.3466 51.8594 56.1591 52.6776 56.1591C53.4957 56.1591 54.2098 56.3466 54.8196 56.7216C55.4295 57.0966 55.9029 57.6231 56.2401 58.3011C56.5772 58.9792 56.7457 59.7708 56.7457 60.6761C56.7457 61.5777 56.5772 62.3655 56.2401 63.0398C55.9029 63.714 55.4295 64.2386 54.8196 64.6136C54.2098 64.9886 53.4957 65.1761 52.6776 65.1761ZM52.6832 63.75C53.2135 63.75 53.6529 63.6098 54.0014 63.3295C54.3499 63.0492 54.6075 62.6761 54.7741 62.2102C54.9446 61.7443 55.0298 61.2311 55.0298 60.6705C55.0298 60.1136 54.9446 59.6023 54.7741 59.1364C54.6075 58.6667 54.3499 58.2898 54.0014 58.0057C53.6529 57.7216 53.2135 57.5795 52.6832 57.5795C52.1491 57.5795 51.706 57.7216 51.3537 58.0057C51.0052 58.2898 50.7457 58.6667 50.5753 59.1364C50.4086 59.6023 50.3253 60.1136 50.3253 60.6705C50.3253 61.2311 50.4086 61.7443 50.5753 62.2102C50.7457 62.6761 51.0052 63.0492 51.3537 63.3295C51.706 63.6098 52.1491 63.75 52.6832 63.75ZM62.7159 56.2727V57.6364H57.9489V56.2727H62.7159ZM59.2273 54.1818H60.9261V62.4375C60.9261 62.767 60.9754 63.0152 61.0739 63.1818C61.1723 63.3447 61.2992 63.4564 61.4545 63.517C61.6136 63.5739 61.786 63.6023 61.9716 63.6023C62.108 63.6023 62.2273 63.5928 62.3295 63.5739C62.4318 63.5549 62.5114 63.5398 62.5682 63.5284L62.875 64.9318C62.7765 64.9697 62.6364 65.0076 62.4545 65.0455C62.2727 65.0871 62.0455 65.1098 61.7727 65.1136C61.3258 65.1212 60.9091 65.0417 60.5227 64.875C60.1364 64.7083 59.8239 64.4508 59.5852 64.1023C59.3466 63.7538 59.2273 63.3163 59.2273 62.7898V54.1818ZM68.1776 65.1761C67.3594 65.1761 66.6454 64.9886 66.0355 64.6136C65.4257 64.2386 64.9522 63.714 64.6151 63.0398C64.2779 62.3655 64.1094 61.5777 64.1094 60.6761C64.1094 59.7708 64.2779 58.9792 64.6151 58.3011C64.9522 57.6231 65.4257 57.0966 66.0355 56.7216C66.6454 56.3466 67.3594 56.1591 68.1776 56.1591C68.9957 56.1591 69.7098 56.3466 70.3196 56.7216C70.9295 57.0966 71.4029 57.6231 71.7401 58.3011C72.0772 58.9792 72.2457 59.7708 72.2457 60.6761C72.2457 61.5777 72.0772 62.3655 71.7401 63.0398C71.4029 63.714 70.9295 64.2386 70.3196 64.6136C69.7098 64.9886 68.9957 65.1761 68.1776 65.1761ZM68.1832 63.75C68.7135 63.75 69.1529 63.6098 69.5014 63.3295C69.8499 63.0492 70.1075 62.6761 70.2741 62.2102C70.4446 61.7443 70.5298 61.2311 70.5298 60.6705C70.5298 60.1136 70.4446 59.6023 70.2741 59.1364C70.1075 58.6667 69.8499 58.2898 69.5014 58.0057C69.1529 57.7216 68.7135 57.5795 68.1832 57.5795C67.6491 57.5795 67.206 57.7216 66.8537 58.0057C66.5052 58.2898 66.2457 58.6667 66.0753 59.1364C65.9086 59.6023 65.8253 60.1136 65.8253 60.6705C65.8253 61.2311 65.9086 61.7443 66.0753 62.2102C66.2457 62.6761 66.5052 63.0492 66.8537 63.3295C67.206 63.6098 67.6491 63.75 68.1832 63.75Z" fill="#141330"/>
</svg>
